<?xml version="1.0" encoding="iso-8859-1"?>
<!-- Generator: Adobe Illustrator 19.0.0, SVG Export Plug-In . SVG Version: 6.00 Build 0)  -->
<svg version="1.1" id="Layer_1" xmlns="http://www.w3.org/2000/svg" xmlns:xlink="http://www.w3.org/1999/xlink" x="0px" y="0px"
	 viewBox="0 0 512 512" style="enable-background:new 0 0 512 512;" xml:space="preserve">
<path style="fill:#00D2FF;" d="M238.345,512c-121.686,0-220.69-99.004-220.69-220.69s99.004-220.69,220.69-220.69
	s220.69,99.004,220.69,220.69S360.031,512,238.345,512z"/>
<path style="fill:#18BDF6;" d="M341.333,438.436c-121.686,0-220.69-99.004-220.69-220.69c0-50.937,17.515-97.768,46.613-135.158
	C80.386,112.268,17.655,194.517,17.655,291.31c0,121.686,99.004,220.69,220.69,220.69c70.749,0,133.663-33.598,174.077-85.532
	C390.08,434.101,366.227,438.436,341.333,438.436z"/>
<path style="fill:#EFF2FA;" d="M357.225,168.705h64.515c-3.784-5.641-7.832-11.09-12.107-16.348h-58.816
	c-12.999-30.534-30.175-55.542-50.058-72.691c-19.805-5.853-40.738-9.046-62.414-9.046s-42.61,3.194-62.415,9.046
	c-19.882,17.15-37.057,42.157-50.057,72.691H67.057c-4.274,5.258-8.323,10.706-12.107,16.348h64.515
	c-11.955,33.607-19.116,72.673-19.951,114.432H17.863c-0.099,2.718-0.207,5.431-0.207,8.173c0,2.742,0.108,5.455,0.207,8.173h81.651
	c0.835,41.759,7.996,80.825,19.951,114.432H54.95c3.784,5.641,7.833,11.09,12.107,16.348h58.817
	c13,30.535,30.175,55.542,50.057,72.691c19.805,5.852,40.739,9.046,62.414,9.046s42.61-3.193,62.414-9.046
	c19.883-17.15,37.058-42.156,50.058-72.691h58.816c4.275-5.258,8.323-10.706,12.107-16.348h-64.515
	c11.955-33.607,19.116-72.673,19.951-114.432h81.651c0.099-2.718,0.207-5.432,0.207-8.173c0-2.741-0.108-5.455-0.207-8.173h-81.651
	C376.341,241.378,369.18,202.312,357.225,168.705z M230.172,511.455c-35.044-4.177-66.102-34.935-86.988-81.192h86.988
	L230.172,511.455L230.172,511.455z M230.172,413.916h-93.714c-12.285-32.97-19.743-72.207-20.602-114.432h114.316V413.916z
	 M230.172,283.137H115.854c0.86-42.225,8.318-81.461,20.602-114.432h93.714v114.432H230.172z M230.172,152.358h-86.988
	c20.886-46.257,51.945-77.015,86.988-81.192L230.172,152.358L230.172,152.358z M246.518,71.166
	c35.044,4.177,66.102,34.936,86.989,81.192h-86.989V71.166z M246.518,511.455v-81.192h86.989
	C312.621,476.52,281.562,507.278,246.518,511.455z M340.233,413.916h-93.714V299.484h114.316
	C359.976,341.708,352.518,380.946,340.233,413.916z M246.518,283.137V168.705h93.714c12.285,32.97,19.743,72.207,20.601,114.432
	L246.518,283.137L246.518,283.137z"/>
<g>
	<path style="fill:#E4EAF6;" d="M257.395,511.086c3.652-0.318,7.286-0.703,10.886-1.197c1.405-0.192,2.802-0.406,4.196-0.625
		c3.703-0.584,7.377-1.258,11.017-2.024c1.133-0.237,2.274-0.457,3.401-0.713c4.317-0.978,8.588-2.078,12.808-3.302
		c0.356-0.104,0.722-0.186,1.078-0.292c18.115-15.631,33.941-37.838,46.447-64.751c-1.974,0.055-3.91,0.255-5.896,0.255
		c-3.88,0-7.734-0.106-11.565-0.306c-20.767,41.85-50.236,69.388-83.25,73.324v-81.192h35.463
		c-18.341-5.131-35.719-12.564-51.81-21.988v5.641h-93.714c-12.285-32.97-19.743-72.207-20.602-114.432h20.547
		c-2.145-5.358-4.139-10.793-5.866-16.348h-14.681c0.386-18.969,2.169-37.287,5.058-54.752c-0.168-3.527-0.27-7.069-0.27-10.637
		c0-39.328,10.528-76.149,28.68-108.126c-8.799,12.55-16.698,26.878-23.449,42.737h-58.55c-1.451,1.778-2.871,3.581-4.267,5.404
		c-1.747,2.283-3.474,4.578-5.131,6.93c-0.929,1.316-1.8,2.677-2.701,4.014h64.244c-11.955,33.607-19.116,72.673-19.951,114.432
		H17.985c-0.1,2.727-0.33,5.42-0.33,8.172c0,2.742,0.108,5.455,0.207,8.173h81.651c0.835,41.759,7.996,80.825,19.951,114.432H54.95
		l0.001,0.002c3.784,5.641,7.832,11.087,12.106,16.345l0,0h58.817c13,30.535,30.175,55.542,50.057,72.691
		c4.858,1.436,9.789,2.702,14.777,3.809c0.147,0.032,0.291,0.07,0.438,0.102c4.985,1.097,10.034,2.026,15.137,2.777
		c0.213,0.032,0.428,0.052,0.641,0.082c4.454,0.644,8.961,1.113,13.496,1.484c1.118,0.089,2.234,0.182,3.356,0.256
		c4.821,0.322,9.67,0.536,14.569,0.536c5.024,0,9.998-0.212,14.938-0.547C254.662,511.359,256.023,511.204,257.395,511.086z
		 M230.172,511.455c-35.044-4.177-66.102-34.935-86.988-81.192h86.988L230.172,511.455L230.172,511.455z"/>
	<path style="fill:#E4EAF6;" d="M412.422,426.467c-4.163,1.422-8.433,2.609-12.698,3.796h9.575
		C410.332,428.992,411.415,427.763,412.422,426.467z"/>
</g>
<path style="fill:#FF6464;" d="M79.448,0C45.321,0,17.655,27.666,17.655,61.793c0,52.966,61.793,97.103,61.793,97.103
	s61.793-44.138,61.793-97.103C141.241,27.666,113.576,0,79.448,0z M79.448,97.103c-19.501,0-35.31-15.809-35.31-35.31
	c0-19.502,15.809-35.31,35.31-35.31s35.31,15.808,35.31,35.31C114.759,81.294,98.95,97.103,79.448,97.103z"/>
<path style="fill:#D2555A;" d="M44.138,61.793c0-10.177,4.366-19.277,11.253-25.72C59.576,14.802,68.76,0,79.448,0
	C45.321,0,17.655,27.666,17.655,61.793c0,52.966,61.793,97.103,61.793,97.103s-18.4-30.785-24.501-71.75
	C48.303,80.726,44.138,71.761,44.138,61.793z"/>
<path style="fill:#FF6464;" d="M432.552,176.552c-34.127,0-61.793,27.666-61.793,61.793c0,52.965,61.793,97.103,61.793,97.103
	s61.793-44.138,61.793-97.103C494.345,204.217,466.679,176.552,432.552,176.552z M432.552,273.655
	c-19.501,0-35.31-15.809-35.31-35.31c0-19.502,15.809-35.31,35.31-35.31s35.31,15.808,35.31,35.31
	C467.862,257.846,452.053,273.655,432.552,273.655z"/>
<path style="fill:#D2555A;" d="M397.241,238.345c0-10.177,4.366-19.277,11.253-25.72c4.185-21.271,13.369-36.073,24.057-36.073
	c-34.127,0-61.793,27.666-61.793,61.793c0,52.965,61.793,97.103,61.793,97.103s-18.4-30.785-24.501-71.75
	C401.407,257.278,397.241,248.312,397.241,238.345z"/>
<path style="fill:#FF6464;" d="M194.207,282.483c-34.127,0-61.793,27.666-61.793,61.793c0,52.966,61.793,97.103,61.793,97.103
	S256,397.241,256,344.276C256,310.148,228.334,282.483,194.207,282.483z M194.207,379.586c-19.501,0-35.31-15.809-35.31-35.31
	c0-19.502,15.809-35.31,35.31-35.31s35.31,15.808,35.31,35.31C229.517,363.777,213.708,379.586,194.207,379.586z"/>
<path style="fill:#D2555A;" d="M158.897,344.276c0-10.177,4.366-19.277,11.253-25.72c4.185-21.271,13.369-36.073,24.057-36.073
	c-34.127,0-61.793,27.666-61.793,61.793c0,52.966,61.793,97.103,61.793,97.103s-18.4-30.785-24.501-71.75
	C163.062,363.209,158.897,354.243,158.897,344.276z"/>
<g>
</g>
<g>
</g>
<g>
</g>
<g>
</g>
<g>
</g>
<g>
</g>
<g>
</g>
<g>
</g>
<g>
</g>
<g>
</g>
<g>
</g>
<g>
</g>
<g>
</g>
<g>
</g>
<g>
</g>
</svg>
