<svg width="24" height="24" viewBox="0 0 24 24" fill="none" xmlns="http://www.w3.org/2000/svg">
  <title>Gears (outlined)</title>
  <g transform="matrix(
          1 0
          0 1
          0.10009765625 1
        )"><path fill-rule="evenodd" clip-rule="evenodd" d="M11.2998 11L9.2998 9.89999C8.89981 10.3 8.3999 10.5 7.8999 10.7L7.8999 13L4.8999 13L4.8999 10.7C4.3999 10.5 3.9 10.3 3.5 9.89999L1.5 11L0 8.39999L2 7.3C1.9 7.1 1.8999 6.8 1.8999 6.5C1.8999 6.35 1.92493 6.225 1.94995 6.1C1.97498 5.975 2 5.85 2 5.7L0 4.60001L1.5 2L3.5 3.10001C3.9 2.80001 4.3999 2.5 4.8999 2.3L4.8999 0L7.8999 0L7.8999 2.3C8.3999 2.5 8.89981 2.70001 9.2998 3.10001L11.2998 2L12.7998 4.60001L10.7998 5.7C10.8998 5.9 10.8999 6.2 10.8999 6.5C10.8999 6.65 10.8749 6.775 10.8499 6.9C10.8248 7.025 10.7998 7.15 10.7998 7.3L12.7998 8.39999L11.2998 11ZM7.8999 6.5C7.8999 5.7 7.1999 5 6.3999 5C5.5999 5 4.8999 5.7 4.8999 6.5C4.8999 7.3 5.5999 8 6.3999 8C7.1999 8 7.8999 7.3 7.8999 6.5ZM21.7998 14.7C21.8998 14.9 21.8999 15.2 21.8999 15.5C21.8999 15.8 21.8998 16.1 21.7998 16.3L23.7998 17.4L22.2998 20L20.2998 18.9C19.8998 19.2 19.3999 19.5 18.8999 19.7L18.8999 22L15.8999 22L15.8999 19.7C15.3999 19.5 14.9 19.3 14.5 18.9L12.5 20L11 17.4L13 16.3C12.9 16.1 12.8999 15.8 12.8999 15.5C12.8999 15.35 12.9249 15.225 12.95 15.1C12.975 14.975 13 14.85 13 14.7L11 13.6L12.5 11L14.5 12.1C14.9 11.8 15.3999 11.5 15.8999 11.3L15.8999 9L18.8999 9L18.8999 11.3C19.3999 11.5 19.8998 11.7 20.2998 12.1L22.2998 11L23.7998 13.6L21.7998 14.7ZM17.3999 17C18.1999 17 18.8999 16.3 18.8999 15.5C18.8999 14.7 18.1999 14 17.3999 14C16.5999 14 15.8999 14.7 15.8999 15.5C15.8999 16.3 16.5999 17 17.3999 17Z" fill="white" opacity="1"/></g>
</svg>
