<?xml version="1.0" encoding="iso-8859-1"?>
<!-- Generator: Adobe Illustrator 19.0.0, SVG Export Plug-In . SVG Version: 6.00 Build 0)  -->
<svg version="1.1" id="Layer_1" xmlns="http://www.w3.org/2000/svg" xmlns:xlink="http://www.w3.org/1999/xlink" x="0px" y="0px"
	 viewBox="0 0 512 512" style="enable-background:new 0 0 512 512;" xml:space="preserve">
<path style="fill:#4C5870;" d="M248.882,366.663c0.344-18.831-4.495-37.739-14.517-54.376l33.3-33.3l-34.65-34.65l-33.3,33.3
	c-16.638-10.022-35.545-14.862-54.376-14.517l-12.203-45.545l-47.334,12.683l12.188,45.485c-8.149,4.501-15.81,10.2-22.714,17.105
	S62.67,307.411,58.169,315.56l-45.485-12.188L0,350.708l45.545,12.203c-0.344,18.831,4.497,37.739,14.517,54.376l-33.3,33.299
	l34.65,34.65l33.3-33.299c16.638,10.021,35.545,14.862,54.376,14.517L161.292,512l47.334-12.683l-12.188-45.485
	c8.149-4.501,15.81-10.2,22.714-17.105s12.604-14.564,17.105-22.714l45.485,12.188l12.683-47.334L248.882,366.663z M184.503,402.076
	c-20.562,20.562-54.018,20.562-74.579,0c-20.562-20.562-20.562-54.017,0-74.579c20.562-20.562,54.018-20.562,74.58,0
	C205.065,348.059,205.065,381.515,184.503,402.076z"/>
<path style="fill:#A2A9AF;" d="M463.058,173.546c2.493-9.307,3.596-18.802,3.41-28.211l45.532-12.2l-12.683-47.334l-45.53,12.2
	c-4.553-8.263-10.27-15.954-17.103-22.787c-6.729-6.729-14.379-12.448-22.676-17.03l12.192-45.501L378.866,0l-12.189,45.489
	c-19.419-0.36-38.213,4.902-54.35,14.617l-33.341-33.341l-34.65,34.65l33.297,33.297c-4.807,7.972-8.591,16.738-11.119,26.171
	c-2.493,9.307-3.596,18.802-3.41,28.211l-45.532,12.201l12.683,47.334l45.53-12.2c4.551,8.263,10.27,15.954,17.102,22.786
	c6.729,6.729,14.38,12.448,22.676,17.03l-12.191,45.501l47.334,12.684l12.189-45.489c19.419,0.36,38.213-4.902,54.35-14.617
	l33.341,33.341l34.65-34.65l-33.297-33.297C456.747,191.744,460.532,182.978,463.058,173.546z M415.724,160.862
	c-7.526,28.087-36.499,44.816-64.586,37.289c-8.945-2.396-17.106-7.096-23.599-13.589c-13.308-13.308-18.554-32.849-13.691-50.999
	c7.526-28.087,36.499-44.816,64.587-37.289c8.945,2.396,17.105,7.096,23.599,13.589
	C415.342,123.172,420.588,142.713,415.724,160.862z"/>
<g>
</g>
<g>
</g>
<g>
</g>
<g>
</g>
<g>
</g>
<g>
</g>
<g>
</g>
<g>
</g>
<g>
</g>
<g>
</g>
<g>
</g>
<g>
</g>
<g>
</g>
<g>
</g>
<g>
</g>
</svg>
