<svg id="Capa_1" enable-background="new 0 0 512 512" height="512" viewBox="0 0 512 512" width="512" xmlns="http://www.w3.org/2000/svg"><g><path d="m184.568 248.498h-86.249c-26.263 0-50.953 10.227-69.523 28.797-18.569 18.569-28.796 43.259-28.796 69.522 0 54.213 44.105 98.319 98.319 98.319h24.856l-12.875 12.875c-2.929 2.929-2.929 7.677 0 10.606 1.465 1.465 3.384 2.197 5.304 2.197 1.919 0 3.839-.732 5.304-2.197l25.679-25.678c1.406-1.406 2.196-3.314 2.196-5.303s-.79-3.897-2.196-5.303l-25.679-25.678c-2.93-2.929-7.678-2.929-10.607 0s-2.929 7.678 0 10.606l12.876 12.875h-24.858c-45.942 0-83.319-37.377-83.319-83.319 0-22.256 8.666-43.179 24.403-58.916 15.736-15.737 36.66-24.403 58.916-24.403h86.249c4.143 0 7.5-3.358 7.5-7.5s-3.357-7.5-7.5-7.5z" fill="#61a2f9"/><path d="m483.203 95.656c-18.57-18.57-43.261-28.796-69.522-28.796h-64.749c-4.143 0-7.5 3.358-7.5 7.5s3.357 7.5 7.5 7.5h64.749c22.256 0 43.18 8.667 58.916 24.403 15.737 15.736 24.403 36.66 24.403 58.916 0 45.942-37.377 83.319-83.319 83.319h-24.856l12.876-12.875c2.929-2.929 2.929-7.677 0-10.606-2.929-2.928-7.677-2.929-10.607 0l-25.679 25.678c-1.406 1.406-2.196 3.314-2.196 5.303s.79 3.897 2.196 5.303l25.679 25.678c1.465 1.465 3.385 2.197 5.304 2.197s3.839-.732 5.304-2.197c2.929-2.929 2.929-7.678 0-10.606l-12.876-12.875h24.856c54.214 0 98.319-44.106 98.319-98.319-.001-26.263-10.228-50.953-28.798-69.523z" fill="#dd636e"/><path d="m256.002 392.679c-4.143 0-7.5-3.358-7.5-7.5v-258.363c0-4.142 3.357-7.5 7.5-7.5s7.5 3.358 7.5 7.5v258.363c0 4.142-3.357 7.5-7.5 7.5z" fill="#665e66"/><path d="m316.827 141.224h-121.649c-17.733 0-32.109-14.376-32.109-32.109v-69.506c0-17.733 14.376-32.109 32.109-32.109h121.649c17.733 0 32.109 14.376 32.109 32.109v69.506c0 17.733-14.376 32.109-32.109 32.109z" fill="#f6e266"/><path d="m316.827 322.86h-121.649c-17.733 0-32.109-14.376-32.109-32.109v-69.506c0-17.733 14.376-32.109 32.109-32.109h121.649c17.733 0 32.109 14.376 32.109 32.109v69.506c0 17.733-14.376 32.109-32.109 32.109z" fill="#dd636e"/><path d="m316.827 504.495h-121.649c-17.733 0-32.109-14.376-32.109-32.109v-69.506c0-17.733 14.376-32.109 32.109-32.109h121.649c17.733 0 32.109 14.376 32.109 32.109v69.506c0 17.734-14.376 32.109-32.109 32.109z" fill="#61a2f9"/><path d="m291.09 107.269-26.459-70.111c-.025-.068-.052-.136-.08-.203-1.41-3.431-4.717-5.647-8.427-5.647-.003 0-.007 0-.01 0-3.714.004-7.021 2.228-8.425 5.665-.022.055-.044.111-.065.167l-26.702 70.108c-1.475 3.871.469 8.204 4.339 9.678.879.335 1.781.493 2.669.493 3.021 0 5.87-1.84 7.01-4.833l4.811-12.63h32.548l4.759 12.609c1.462 3.876 5.791 5.832 9.665 4.369s5.83-5.79 4.367-9.665zm-45.627-22.313 10.636-27.925 10.539 27.925z" fill="#454045"/><path d="m274.254 250.817c2.867-3.938 4.564-8.779 4.564-14.011 0-13.158-10.704-23.863-23.862-23.863h-20.655c-4.143 0-7.5 3.358-7.5 7.5v32.744.053 38.312c0 1.995.795 3.907 2.208 5.315 1.406 1.4 3.309 2.185 5.292 2.185h.033c.002 0 18.995-.084 24.229-.084 14.689 0 26.641-11.951 26.641-26.641 0-8.826-4.318-16.66-10.95-21.51zm-19.298-22.874c4.887 0 8.862 3.976 8.862 8.863s-3.976 8.862-8.862 8.862c-1.519 0-4.377.008-7.496.019h-5.66v-17.744zm3.607 56.025c-3.063 0-10.829.029-16.763.053v-23.312c1.834-.007 3.808-.015 5.69-.022h11.073c6.419 0 11.641 5.222 11.641 11.641s-5.222 11.64-11.641 11.64z" fill="#78d0b1"/><g><path d="m262.58 480.688c-23.74 0-43.055-19.314-43.055-43.055s19.314-43.055 43.055-43.055c8.627 0 16.952 2.544 24.077 7.357 3.433 2.319 4.335 6.981 2.017 10.413-2.319 3.433-6.981 4.335-10.413 2.016-4.636-3.132-10.058-4.787-15.681-4.787-15.47 0-28.055 12.585-28.055 28.055s12.585 28.055 28.055 28.055c5.794 0 10.681-1.736 14.525-5.16.748-.666 1.464-1.405 2.129-2.198 2.663-3.173 7.392-3.588 10.565-.925 3.174 2.662 3.588 7.393.925 10.566-1.13 1.347-2.355 2.611-3.643 3.758-6.58 5.862-15.053 8.96-24.501 8.96z" fill="#f6f1f1"/></g><path d="m228.87 141.226h-33.69c-17.73 0-32.11-14.38-32.11-32.11v-69.51c0-17.73 14.38-32.1 32.11-32.1h33.69c-17.73 0-32.11 14.37-32.11 32.1v69.51c0 17.73 14.38 32.11 32.11 32.11z" fill="#eab14d"/><path d="m228.869 322.864h-33.69c-17.73 0-32.11-14.38-32.11-32.11v-69.51c0-17.73 14.38-32.1 32.11-32.1h33.69c-17.73 0-32.11 14.37-32.11 32.1v69.51c0 17.73 14.38 32.11 32.11 32.11z" fill="#c10a54"/><path d="m228.869 504.5h-33.69c-17.73 0-32.11-14.38-32.11-32.11v-69.51c0-17.73 14.38-32.1 32.11-32.1h33.69c-17.73 0-32.11 14.37-32.11 32.1v69.51c0 17.73 14.38 32.11 32.11 32.11z" fill="#4073c8"/></g></svg>